<?xml version="1.0"?>
<svg viewBox="0 0 280 280" width="280" height="320" xmlns="http://www.w3.org/2000/svg">
        <circle cx="140" cy="140" r="130" fill="none" stroke="#1D9E75" stroke-width="1" stroke-dasharray="4 4"></circle>
        <circle cx="140" cy="140" r="90" fill="none" stroke="#085041" stroke-width="0.5"></circle>
        <circle cx="140" cy="140" r="130" fill="none" stroke="#E1F5EE" stroke-width="18" stroke-dasharray="1 999" stroke-dashoffset="-50"></circle>
        <line x1="140" y1="10" x2="140" y2="88" stroke="#1D9E75" stroke-width="3" stroke-linecap="round"></line>
        <line x1="253" y1="205" x2="184" y2="166" stroke="#534AB7" stroke-width="3" stroke-linecap="round"></line>
        <line x1="27" y1="205" x2="96" y2="166" stroke="#378ADD" stroke-width="3" stroke-linecap="round"></line>
        <polygon points="140,88 184,166 96,166" fill="none" stroke="#0F6E56" stroke-width="1.5" stroke-linejoin="round"></polygon>
        <circle cx="140" cy="10" r="14" fill="#0C2A20" stroke="#1D9E75" stroke-width="1.5"></circle>
        <circle cx="140" cy="10" r="7" fill="#1D9E75"></circle>
        <circle cx="253" cy="205" r="14" fill="#0C2A20" stroke="#534AB7" stroke-width="1.5"></circle>
        <circle cx="253" cy="205" r="7" fill="#534AB7"></circle>
        <circle cx="27" cy="205" r="14" fill="#0C2A20" stroke="#378ADD" stroke-width="1.5"></circle>
        <circle cx="27" cy="205" r="7" fill="#378ADD"></circle>
        <circle cx="140" cy="140" r="32" fill="#0F6E56"></circle>
        <circle cx="140" cy="140" r="20" fill="#085041"></circle>
        <text x="140" y="148" text-anchor="middle" font-family="sans-serif" font-size="20" font-weight="500" fill="#E1F5EE">N</text>
        <text x="143" y="-10" text-anchor="middle" font-family="sans-serif" font-size="9" fill="#5DCAA5" letter-spacing="1">IDEAS</text>
        <text x="255" y="230" text-anchor="middle" font-family="sans-serif" font-size="9" fill="#AFA9EC" letter-spacing="1">TECH</text>
        <text x="26" y="230" text-anchor="middle" font-family="sans-serif" font-size="9" fill="#85B7EB" letter-spacing="1">HUMANS</text>
      </svg>